<svg width="24" height="45" viewBox="0 0 24 45" fill="none" xmlns="http://www.w3.org/2000/svg">
<g clip-path="url(#clip0_541_593)">
<path fill-rule="evenodd" clip-rule="evenodd" d="M0.565959 0.698096C0.724296 0.540269 0.912395 0.41505 1.11948 0.329612C1.32657 0.244174 1.54857 0.200195 1.77278 0.200195C1.99698 0.200195 2.21899 0.244174 2.42607 0.329612C2.63316 0.41505 2.82126 0.540269 2.9796 0.698096L23.4341 21.0353C23.5929 21.1927 23.7188 21.3797 23.8048 21.5856C23.8907 21.7915 23.9349 22.0122 23.9349 22.2351C23.9349 22.4581 23.8907 22.6788 23.8048 22.8847C23.7188 23.0906 23.5929 23.2776 23.4341 23.435L2.9796 43.7722C2.65953 44.0904 2.22542 44.2692 1.77278 44.2692C1.32013 44.2692 0.886027 44.0904 0.565959 43.7722C0.245891 43.454 0.066078 43.0224 0.066078 42.5723C0.066078 42.1223 0.245891 41.6906 0.565959 41.3724L19.8171 22.2351L0.565959 3.09788C0.407221 2.94045 0.281279 2.75343 0.195347 2.54754C0.109416 2.34164 0.0651855 2.12091 0.0651855 1.89799C0.0651855 1.67507 0.109416 1.45434 0.195347 1.24844C0.281279 1.04254 0.407221 0.855525 0.565959 0.698096Z" fill="white"/>
</g>
<defs>
<clipPath id="clip0_541_593">
<rect width="24" height="44.4706" fill="white"/>
</clipPath>
</defs>
</svg>
